<svg width="128" height="128" viewBox="0 0 33.867 33.867" xmlns="http://www.w3.org/2000/svg"><path style="color:#000;fill:#000;stroke-width:1" d="M6.615 0c-.87 0-1.588.718-1.588 1.588v30.69c0 .871.717 1.589 1.588 1.589h20.637c.87 0 1.588-.718 1.588-1.588V8.467l-1.8-1.8L22.172 1.8l-1.8-1.8Zm0 1.058h12.7v6.88c0 .87.717 1.587 1.587 1.587h6.879v22.754c0 .302-.227.53-.53.53H6.616a.517.517 0 0 1-.53-.53V1.588c0-.302.227-.53.53-.53zm13.757.439 1.051 1.05 4.869 4.87 1.05 1.05h-6.44a.517.517 0 0 1-.53-.53z"/></svg>