<svg width="128" height="128" viewBox="0 0 33.867 33.867" xmlns="http://www.w3.org/2000/svg"><path style="color:#000;fill:#000;stroke-width:1" d="M3.705 2.91c-.87 0-1.588.718-1.588 1.588v.53h-.529C.718 5.027 0 5.744 0 6.614v20.637c0 .87.718 1.588 1.588 1.588h30.69c.871 0 1.589-.718 1.589-1.588V6.615c0-.87-.718-1.588-1.588-1.588H14.817v-.53c0-.87-.717-1.587-1.588-1.587H3.705zm0 1.059h9.524c.302 0 .53.227.53.529v.53H3.175v-.53c0-.302.227-.53.53-.53zM1.588 6.086h30.69c.303 0 .53.227.53.53v20.636c0 .302-.227.529-.53.529H1.589a.517.517 0 0 1-.53-.53V6.616c0-.302.228-.53.53-.53z"/></svg>

